<svg id="Layer_1" data-name="Layer 1" xmlns="http://www.w3.org/2000/svg" width="23.81" height="23.46" viewBox="0 0 45.81 45.46"><defs><style>.cls-1{fill:black;}</style></defs><path class="cls-1" d="M58.63,82.13A1.64,1.64,0,0,1,57,83.77H37.36a1.64,1.64,0,0,1-1.64-1.64V77.66c.09-5.48.67-10.73,1.89-13.12a5.19,5.19,0,0,1,3.31-2.64c2.61-.78,7.19-.25,9.14-.34,0,0,5.87.23,5.87-3.09A2.36,2.36,0,0,0,53.31,56a18.07,18.07,0,0,1-6.52-.68,3.37,3.37,0,0,1-2.48-3.24c-.12-6.66-9.94-7.46-18.6-5.81-9.46,1.8.1,15.37.1,33.47v2.42a1.65,1.65,0,0,1-1.63,1.61H14.46a1.64,1.64,0,0,1-1.64-1.64V40.61A1.64,1.64,0,0,1,14.46,39H23.6a1.64,1.64,0,0,1,1.64,1.64,1.63,1.63,0,0,0,2.6,1.31,20.82,20.82,0,0,1,12.22-3.61c10.57,0,18.57,6.16,18.57,19.81ZM41.08,53.25a3.5,3.5,0,1,0-3.5,3.5A3.5,3.5,0,0,0,41.08,53.25Z" transform="translate(-12.82 -38.31)"/></svg>